<svg width="19" height="20" viewBox="0 0 19 20" fill="none" xmlns="http://www.w3.org/2000/svg">
<path d="M8.26881 14.547H10.1063V10.6678H13.7813V8.72819H10.1063V4.84899H8.26881V8.72819H4.59378V10.6678H8.26881V14.547ZM9.18757 19.396C7.91662 19.396 6.72224 19.1412 5.60442 18.6318C4.4866 18.1223 3.51424 17.4315 2.68736 16.5593C1.86048 15.6865 1.20602 14.6601 0.72398 13.4802C0.241939 12.3003 0.000612504 11.0395 0 9.69799C0 8.35643 0.241327 7.09569 0.72398 5.91577C1.20663 4.73585 1.86109 3.70948 2.68736 2.83666C3.51424 1.96384 4.4866 1.27302 5.60442 0.764201C6.72224 0.25538 7.91662 0.000646532 9.18757 0C10.4585 0 11.6529 0.254734 12.7707 0.764201C13.8885 1.27367 14.8609 1.96449 15.6878 2.83666C16.5147 3.70948 17.1694 4.73585 17.6521 5.91577C18.1347 7.09569 18.3757 8.35643 18.3751 9.69799C18.3751 11.0395 18.1338 12.3003 17.6512 13.4802C17.1685 14.6601 16.514 15.6865 15.6878 16.5593C14.8609 17.4321 13.8885 18.1233 12.7707 18.6327C11.6529 19.1422 10.4585 19.3966 9.18757 19.396Z" fill="#2081E4"/>
</svg>
