<svg width="46" height="49" viewBox="0 0 46 49" fill="none" xmlns="http://www.w3.org/2000/svg">
<path d="M20.75 36.375H25.25V26.875H34.25V22.125H25.25V12.625H20.75V22.125H11.75V26.875H20.75V36.375ZM23 48.25C19.8875 48.25 16.9625 47.6262 14.225 46.3785C11.4875 45.1308 9.10625 43.439 7.08125 41.3031C5.05625 39.1656 3.4535 36.6521 2.273 33.7625C1.0925 30.8729 0.5015 27.7854 0.5 24.5C0.5 21.2146 1.091 18.1271 2.273 15.2375C3.455 12.3479 5.05775 9.83438 7.08125 7.69688C9.10625 5.55938 11.4875 3.86758 14.225 2.6215C16.9625 1.37542 19.8875 0.751583 23 0.75C26.1125 0.75 29.0375 1.37383 31.775 2.6215C34.5125 3.86917 36.8938 5.56096 38.9188 7.69688C40.9438 9.83438 42.5472 12.3479 43.7292 15.2375C44.9112 18.1271 45.5015 21.2146 45.5 24.5C45.5 27.7854 44.909 30.8729 43.727 33.7625C42.545 36.6521 40.9423 39.1656 38.9188 41.3031C36.8938 43.4406 34.5125 45.1332 31.775 46.3809C29.0375 47.6285 26.1125 48.2516 23 48.25Z" fill="url(#paint0_linear_146_3145)"/>
<defs>
<linearGradient id="paint0_linear_146_3145" x1="-1.72433" y1="9.42787" x2="50.7217" y2="10.5807" gradientUnits="userSpaceOnUse">
<stop stop-color="#2081E4"/>
<stop offset="0.9999" stop-color="#8B45FF"/>
<stop offset="1" stop-color="#4E139F"/>
</linearGradient>
</defs>
</svg>
