<svg width="76" height="76" viewBox="0 0 76 76" fill="none" xmlns="http://www.w3.org/2000/svg">
<path d="M35.0063 53.1439H41.2564V40.6439H53.7564V34.3939H41.2564V21.8939H35.0063V34.3939H22.5063V40.6439H35.0063V53.1439ZM38.1314 68.7689C33.8084 68.7689 29.7459 67.948 25.9439 66.3064C22.1418 64.6647 18.8345 62.4387 16.022 59.6282C13.2095 56.8157 10.9834 53.5084 9.34385 49.7064C7.70426 45.9043 6.88343 41.8418 6.88135 37.5189C6.88135 33.1959 7.70218 29.1334 9.34385 25.3314C10.9855 21.5293 13.2116 18.222 16.022 15.4095C18.8345 12.597 22.1418 10.3709 25.9439 8.73136C29.7459 7.09178 33.8084 6.27094 38.1314 6.26886C42.4543 6.26886 46.5168 7.08969 50.3188 8.73136C54.1209 10.373 57.4282 12.5991 60.2407 15.4095C63.0532 18.222 65.2803 21.5293 66.922 25.3314C68.5636 29.1334 69.3834 33.1959 69.3814 37.5189C69.3814 41.8418 68.5605 45.9043 66.9189 49.7064C65.2772 53.5084 63.0511 56.8157 60.2407 59.6282C57.4282 62.4407 54.1209 64.6678 50.3188 66.3095C46.5168 67.9511 42.4543 68.7709 38.1314 68.7689Z" fill="#DCDBE0"/>
</svg>
