<svg width="98" height="102" viewBox="0 0 98 102" fill="none" xmlns="http://www.w3.org/2000/svg">
<ellipse cx="49" cy="51" rx="49" ry="51" fill="#D9D9D9"/>
<path d="M48.9997 28.3333C52.0055 28.3333 54.8881 29.5274 57.0136 31.6528C59.139 33.7782 60.333 36.6609 60.333 39.6667C60.333 42.6725 59.139 45.5551 57.0136 47.6806C54.8881 49.806 52.0055 51 48.9997 51C45.9939 51 43.1112 49.806 40.9858 47.6806C38.8604 45.5551 37.6663 42.6725 37.6663 39.6667C37.6663 36.6609 38.8604 33.7782 40.9858 31.6528C43.1112 29.5274 45.9939 28.3333 48.9997 28.3333ZM48.9997 56.6667C61.523 56.6667 71.6663 61.7383 71.6663 68V73.6667H26.333V68C26.333 61.7383 36.4763 56.6667 48.9997 56.6667Z" fill="white"/>
</svg>
