<svg width="24" height="24" viewBox="0 0 24 24" fill="none" xmlns="http://www.w3.org/2000/svg">
<path d="M18 4.8H24V7.2H21.6V22.8C21.6 23.1183 21.4736 23.4235 21.2485 23.6485C21.0235 23.8736 20.7183 24 20.4 24H3.6C3.28174 24 2.97652 23.8736 2.75147 23.6485C2.52643 23.4235 2.4 23.1183 2.4 22.8V7.2H0V4.8H6V1.2C6 0.88174 6.12643 0.576515 6.35147 0.351472C6.57652 0.126428 6.88174 0 7.2 0H16.8C17.1183 0 17.4235 0.126428 17.6485 0.351472C17.8736 0.576515 18 0.88174 18 1.2V4.8ZM19.2 7.2H4.8V21.6H19.2V7.2ZM13.6968 14.4L15.8184 16.5216L14.1216 18.2184L12 16.0968L9.8784 18.2184L8.1816 16.5216L10.3032 14.4L8.1816 12.2784L9.8784 10.5816L12 12.7032L14.1216 10.5816L15.8184 12.2784L13.6968 14.4ZM8.4 2.4V4.8H15.6V2.4H8.4Z" fill="#82818F"/>
</svg>
