<svg width="35" height="39" viewBox="0 0 35 39" fill="none" xmlns="http://www.w3.org/2000/svg">
<ellipse cx="17.5" cy="19.5" rx="17.5" ry="18.8208" fill="#A293FC"/>
<g clip-path="url(#clip0_120_2983)">
<path d="M12 18.5392V25.4151H18.3933L17.06 23.9811H13.3333V19.9732L12 18.5392Z" fill="white"/>
<path d="M29.2464 29.208L27.333 27.1215V29H8.66635V26.0246H9.99969V24.8774H8.66635V20.1095H9.99969V18.9623H8.66635V14.3736H9.99969V13.2264H8.66635V9.21852L19.293 20.5827V18.5608L8.47302 6.98153C8.37977 6.88042 8.26064 6.81146 8.13081 6.78345C8.00097 6.75543 7.86633 6.76964 7.74403 6.82425C7.62174 6.87886 7.51733 6.9714 7.44413 7.09008C7.37093 7.20875 7.33225 7.34818 7.33302 7.49059V29.717C7.33302 29.9072 7.40326 30.0895 7.52828 30.224C7.65331 30.3585 7.82287 30.434 7.99969 30.434H28.773C28.9054 30.4348 29.0351 30.3932 29.1454 30.3145C29.2558 30.2358 29.3418 30.1235 29.3926 29.992C29.4434 29.8604 29.4566 29.7156 29.4305 29.576C29.4045 29.4364 29.3404 29.3082 29.2464 29.208Z" fill="white"/>
<path d="M22.0003 27.566H24.667C25.0206 27.566 25.3598 27.4149 25.6098 27.146C25.8598 26.8771 26.0003 26.5124 26.0003 26.1321V12.2943L24.467 9.26149C24.3484 9.04053 24.1772 8.8576 23.9709 8.73157C23.7646 8.60553 23.5309 8.54096 23.2937 8.54451C23.0511 8.54658 22.8136 8.61978 22.6069 8.75623C22.4001 8.89268 22.2319 9.0872 22.1203 9.31885L20.667 12.3087V26.1321C20.667 26.5124 20.8075 26.8771 21.0575 27.146C21.3076 27.4149 21.6467 27.566 22.0003 27.566ZM22.0003 12.6528L23.2937 9.94979L24.667 12.66V23.2641H22.0003V12.6528ZM22.0003 24.4328H24.667V26.1822H22.0003V24.4328Z" fill="white"/>
</g>
<defs>
<clipPath id="clip0_120_2983">
<rect width="24" height="25.8113" fill="white" transform="translate(6 6.05661)"/>
</clipPath>
</defs>
</svg>
