<svg width="24" height="26" viewBox="0 0 24 26" fill="none" xmlns="http://www.w3.org/2000/svg">
<g clip-path="url(#clip0_120_2985)">
<path d="M6 12.5392V19.4151H12.3933L11.06 17.9811H7.33333V13.9732L6 12.5392Z" fill="white"/>
<path d="M23.2464 23.208L21.333 21.1215V23H2.66635V20.0246H3.99969V18.8774H2.66635V14.1095H3.99969V12.9623H2.66635V8.37361H3.99969V7.22644H2.66635V3.21852L13.293 14.5827V12.5608L2.47302 0.981534C2.37977 0.880419 2.26064 0.811459 2.13081 0.783447C2.00097 0.755435 1.86633 0.769639 1.74403 0.824249C1.62174 0.878859 1.51733 0.971401 1.44413 1.09008C1.37093 1.20875 1.33225 1.34818 1.33302 1.49059V23.717C1.33302 23.9072 1.40326 24.0895 1.52828 24.224C1.65331 24.3585 1.82287 24.434 1.99969 24.434H22.773C22.9054 24.4348 23.0351 24.3932 23.1454 24.3145C23.2558 24.2358 23.3418 24.1235 23.3926 23.992C23.4434 23.8604 23.4566 23.7156 23.4305 23.576C23.4045 23.4364 23.3404 23.3082 23.2464 23.208Z" fill="white"/>
<path d="M16.0003 21.566H18.667C19.0206 21.566 19.3598 21.4149 19.6098 21.146C19.8598 20.8771 20.0003 20.5124 20.0003 20.1321V6.29432L18.467 3.26149C18.3484 3.04053 18.1772 2.8576 17.9709 2.73157C17.7646 2.60553 17.5309 2.54096 17.2937 2.54451C17.0511 2.54658 16.8136 2.61978 16.6069 2.75623C16.4001 2.89268 16.2319 3.0872 16.1203 3.31885L14.667 6.30866V20.1321C14.667 20.5124 14.8075 20.8771 15.0575 21.146C15.3076 21.4149 15.6467 21.566 16.0003 21.566ZM16.0003 6.65281L17.2937 3.94979L18.667 6.65998V17.2641H16.0003V6.65281ZM16.0003 18.4328H18.667V20.1822H16.0003V18.4328Z" fill="white"/>
</g>
<defs>
<clipPath id="clip0_120_2985">
<rect width="24" height="25.8113" fill="white" transform="translate(0 0.0566101)"/>
</clipPath>
</defs>
</svg>
