<svg width="35" height="39" viewBox="0 0 35 39" fill="none" xmlns="http://www.w3.org/2000/svg">
<ellipse cx="17.5" cy="19.5" rx="17.5" ry="18.8208" fill="#A293FC"/>
<path d="M10.5002 26.2948L22.9331 7.19325C23.0042 7.07662 23.0964 6.97653 23.2041 6.8989C23.3119 6.82128 23.433 6.76772 23.5603 6.74138C23.6877 6.71504 23.8187 6.71646 23.9455 6.74557C24.0723 6.77467 24.1924 6.83086 24.2986 6.91081C24.4049 6.99076 24.4952 7.09284 24.564 7.211C24.6329 7.32916 24.6791 7.46099 24.6997 7.59867C24.7203 7.73636 24.7151 7.8771 24.6842 8.01256C24.6533 8.14801 24.5975 8.27542 24.52 8.38723L11.5135 28.3702C11.4391 28.4848 11.3441 28.5822 11.2339 28.6566C11.1238 28.7309 11.0009 28.7806 10.8726 28.8028C10.7442 28.8249 10.613 28.8191 10.4868 28.7856C10.3606 28.7521 10.2419 28.6916 10.1379 28.6077L3.16289 22.9816C3.06112 22.8996 2.97538 22.7967 2.91056 22.679C2.84574 22.5613 2.80312 22.4309 2.78513 22.2955C2.7488 22.022 2.81499 21.7441 2.96914 21.523C3.1233 21.302 3.3528 21.1558 3.60714 21.1168C3.86149 21.0777 4.11985 21.1489 4.32539 21.3147L10.5002 26.2948ZM24.2816 16.3408C24.0247 16.3408 23.7783 16.231 23.5966 16.0357C23.415 15.8403 23.3129 15.5753 23.3129 15.2989C23.3129 15.0226 23.415 14.7576 23.5966 14.5622C23.7783 14.3669 24.0247 14.2571 24.2816 14.2571H30.0941C30.3511 14.2571 30.5975 14.3669 30.7792 14.5622C30.9608 14.7576 31.0629 15.0226 31.0629 15.2989C31.0629 15.5753 30.9608 15.8403 30.7792 16.0357C30.5975 16.231 30.3511 16.3408 30.0941 16.3408H24.2816ZM20.4066 22.592C20.1497 22.592 19.9033 22.4822 19.7216 22.2868C19.54 22.0915 19.4379 21.8264 19.4379 21.5501C19.4379 21.2738 19.54 21.0088 19.7216 20.8134C19.9033 20.618 20.1497 20.5083 20.4066 20.5083H30.0922C30.3491 20.5083 30.5955 20.618 30.7772 20.8134C30.9589 21.0088 31.061 21.2738 31.061 21.5501C31.061 21.8264 30.9589 22.0915 30.7772 22.2868C30.5955 22.4822 30.3491 22.592 30.0922 22.592H20.4066ZM16.5316 28.8432C16.2747 28.8432 16.0283 28.7334 15.8466 28.538C15.665 28.3426 15.5629 28.0776 15.5629 27.8013C15.5629 27.525 15.665 27.26 15.8466 27.0646C16.0283 26.8692 16.2747 26.7594 16.5316 26.7594H30.0922C30.3491 26.7594 30.5955 26.8692 30.7772 27.0646C30.9589 27.26 31.061 27.525 31.061 27.8013C31.061 28.0776 30.9589 28.3426 30.7772 28.538C30.5955 28.7334 30.3491 28.8432 30.0922 28.8432H16.5316Z" fill="white"/>
</svg>
