<svg width="31" height="35" viewBox="0 0 31 35" fill="none" xmlns="http://www.w3.org/2000/svg">
<path d="M8.50021 25.2948L20.9331 6.19325C21.0042 6.07662 21.0964 5.97653 21.2041 5.8989C21.3119 5.82128 21.433 5.76772 21.5603 5.74138C21.6877 5.71504 21.8187 5.71646 21.9455 5.74557C22.0723 5.77467 22.1924 5.83086 22.2986 5.91081C22.4049 5.99076 22.4951 6.09284 22.564 6.211C22.6329 6.32916 22.6791 6.46099 22.6997 6.59867C22.7203 6.73636 22.7151 6.8771 22.6842 7.01256C22.6533 7.14801 22.5975 7.27542 22.52 7.38723L9.51352 27.3702C9.43914 27.4848 9.34406 27.5822 9.23394 27.6566C9.12382 27.7309 9.00092 27.7806 8.87256 27.8028C8.7442 27.8249 8.613 27.8191 8.48679 27.7856C8.36057 27.7521 8.24191 27.6916 8.13789 27.6077L1.16289 21.9816C1.06112 21.8996 0.975377 21.7967 0.91056 21.679C0.845743 21.5613 0.803122 21.4309 0.785131 21.2955C0.748796 21.022 0.814988 20.7441 0.969145 20.523C1.1233 20.302 1.3528 20.1558 1.60714 20.1168C1.86149 20.0777 2.11985 20.1489 2.32539 20.3147L8.50021 25.2948ZM22.2816 15.3408C22.0247 15.3408 21.7783 15.231 21.5966 15.0357C21.415 14.8403 21.3129 14.5753 21.3129 14.2989C21.3129 14.0226 21.415 13.7576 21.5966 13.5622C21.7783 13.3669 22.0247 13.2571 22.2816 13.2571H28.0941C28.3511 13.2571 28.5975 13.3669 28.7792 13.5622C28.9608 13.7576 29.0629 14.0226 29.0629 14.2989C29.0629 14.5753 28.9608 14.8403 28.7792 15.0357C28.5975 15.231 28.3511 15.3408 28.0941 15.3408H22.2816ZM18.4066 21.592C18.1497 21.592 17.9033 21.4822 17.7216 21.2868C17.54 21.0915 17.4379 20.8264 17.4379 20.5501C17.4379 20.2738 17.54 20.0088 17.7216 19.8134C17.9033 19.618 18.1497 19.5083 18.4066 19.5083H28.0922C28.3491 19.5083 28.5955 19.618 28.7772 19.8134C28.9589 20.0088 29.061 20.2738 29.061 20.5501C29.061 20.8264 28.9589 21.0915 28.7772 21.2868C28.5955 21.4822 28.3491 21.592 28.0922 21.592H18.4066ZM14.5316 27.8432C14.2747 27.8432 14.0283 27.7334 13.8466 27.538C13.665 27.3426 13.5629 27.0776 13.5629 26.8013C13.5629 26.525 13.665 26.26 13.8466 26.0646C14.0283 25.8692 14.2747 25.7594 14.5316 25.7594H28.0922C28.3491 25.7594 28.5955 25.8692 28.7772 26.0646C28.9589 26.26 29.061 26.525 29.061 26.8013C29.061 27.0776 28.9589 27.3426 28.7772 27.538C28.5955 27.7334 28.3491 27.8432 28.0922 27.8432H14.5316Z" fill="white"/>
</svg>
