<svg width="24" height="26" viewBox="0 0 24 26" fill="none" xmlns="http://www.w3.org/2000/svg">
<path d="M15.55 14.0377C16.3 14.0377 16.96 13.5968 17.3 12.93L20.88 5.95019C20.9643 5.78718 21.0075 5.60332 21.0054 5.41682C21.0034 5.23031 20.956 5.04762 20.8681 4.88683C20.7803 4.72604 20.6548 4.59271 20.5043 4.50004C20.3538 4.40738 20.1834 4.35859 20.01 4.35849H5.21L4.27 2.20755H1V4.35849H3L6.6 12.5213L5.25 15.1455C4.52 16.5866 5.48 18.3396 7 18.3396H19V16.1887H7L8.1 14.0377H15.55ZM6.16 6.50944H18.31L15.55 11.8868H8.53L6.16 6.50944ZM7 19.4151C5.9 19.4151 5.01 20.383 5.01 21.566C5.01 22.7491 5.9 23.717 7 23.717C8.1 23.717 9 22.7491 9 21.566C9 20.383 8.1 19.4151 7 19.4151ZM17 19.4151C15.9 19.4151 15.01 20.383 15.01 21.566C15.01 22.7491 15.9 23.717 17 23.717C18.1 23.717 19 22.7491 19 21.566C19 20.383 18.1 19.4151 17 19.4151Z" fill="white"/>
</svg>
