<svg width="35" height="39" viewBox="0 0 35 39" fill="none" xmlns="http://www.w3.org/2000/svg">
<ellipse cx="17.5" cy="19.4245" rx="17.5" ry="18.8208" fill="#A293FC"/>
<path d="M21.55 21.0377C22.3 21.0377 22.96 20.5968 23.3 19.93L26.88 12.9502C26.9643 12.7872 27.0075 12.6033 27.0054 12.4168C27.0034 12.2303 26.956 12.0476 26.8681 11.8868C26.7803 11.726 26.6548 11.5927 26.5043 11.5C26.3538 11.4074 26.1834 11.3586 26.01 11.3585H11.21L10.27 9.20755H7V11.3585H9L12.6 19.5213L11.25 22.1455C10.52 23.5866 11.48 25.3396 13 25.3396H25V23.1887H13L14.1 21.0377H21.55ZM12.16 13.5094H24.31L21.55 18.8868H14.53L12.16 13.5094ZM13 26.4151C11.9 26.4151 11.01 27.383 11.01 28.566C11.01 29.7491 11.9 30.717 13 30.717C14.1 30.717 15 29.7491 15 28.566C15 27.383 14.1 26.4151 13 26.4151ZM23 26.4151C21.9 26.4151 21.01 27.383 21.01 28.566C21.01 29.7491 21.9 30.717 23 30.717C24.1 30.717 25 29.7491 25 28.566C25 27.383 24.1 26.4151 23 26.4151Z" fill="white"/>
</svg>
