<svg width="24" height="26" viewBox="0 0 24 26" fill="none" xmlns="http://www.w3.org/2000/svg">
<g clip-path="url(#clip0_120_2981)">
<path d="M5 14.5755H19M12 14.5755V25.8679M6.5 11.8868V7.04719H5.328C4.66203 7.0472 4.015 7.28552 3.48886 7.72461C2.96272 8.1637 2.58738 8.77859 2.422 9.47238L0.5 17.533V17.8019H7.5V19.4151C7.5 21.0283 7.5 22.1038 8.25 23.717C8.25 23.717 9 25.3302 10 25.3302M17.5 11.8868V7.04719H18.672C19.338 7.0472 19.985 7.28552 20.5111 7.72461C21.0373 8.1637 21.4126 8.77859 21.578 9.47238L23.5 17.533V17.8019H16.5V19.4151C16.5 21.0283 16.5 22.1038 15.75 23.717C15.75 23.717 15 25.3302 14 25.3302M6.35 4.89625C6.35 4.89625 4.75 3.82078 4.75 2.47644C4.75 1.97785 4.93416 1.49968 5.26198 1.14713C5.58979 0.794574 6.0344 0.596511 6.498 0.596511C6.9616 0.596511 7.40621 0.794574 7.73402 1.14713C8.06184 1.49968 8.246 1.97785 8.246 2.47644C8.246 3.82078 6.65 4.89625 6.65 4.89625H6.35ZM17.65 4.89625C17.65 4.89625 19.25 3.82078 19.25 2.47644C19.25 1.97728 19.0656 1.49857 18.7374 1.14561C18.4092 0.79265 17.9641 0.59436 17.5 0.59436C16.534 0.59436 15.754 1.43753 15.754 2.47644C15.754 3.82078 17.35 4.89625 17.35 4.89625H17.65Z" stroke="white"/>
</g>
<defs>
<clipPath id="clip0_120_2981">
<rect width="24" height="25.8113" fill="white" transform="translate(0 0.0566101)"/>
</clipPath>
</defs>
</svg>
