<svg width="35" height="39" viewBox="0 0 35 39" fill="none" xmlns="http://www.w3.org/2000/svg">
<ellipse cx="17.5" cy="19.4245" rx="17.5" ry="18.8208" fill="#A293FC"/>
<g clip-path="url(#clip0_120_2979)">
<path d="M10 21.5755H24M17 21.5755V32.8679M11.5 18.8868V14.0472H10.328C9.66203 14.0472 9.015 14.2855 8.48886 14.7246C7.96272 15.1637 7.58738 15.7786 7.422 16.4724L5.5 24.533V24.8019H12.5V26.4151C12.5 28.0283 12.5 29.1038 13.25 30.717C13.25 30.717 14 32.3302 15 32.3302M22.5 18.8868V14.0472H23.672C24.338 14.0472 24.985 14.2855 25.5111 14.7246C26.0373 15.1637 26.4126 15.7786 26.578 16.4724L28.5 24.533V24.8019H21.5V26.4151C21.5 28.0283 21.5 29.1038 20.75 30.717C20.75 30.717 20 32.3302 19 32.3302M11.35 11.8962C11.35 11.8962 9.75 10.8208 9.75 9.47644C9.75 8.97785 9.93416 8.49968 10.262 8.14713C10.5898 7.79457 11.0344 7.59651 11.498 7.59651C11.9616 7.59651 12.4062 7.79457 12.734 8.14713C13.0618 8.49968 13.246 8.97785 13.246 9.47644C13.246 10.8208 11.65 11.8962 11.65 11.8962H11.35ZM22.65 11.8962C22.65 11.8962 24.25 10.8208 24.25 9.47644C24.25 8.97728 24.0656 8.49857 23.7374 8.14561C23.4092 7.79265 22.9641 7.59436 22.5 7.59436C21.534 7.59436 20.754 8.43753 20.754 9.47644C20.754 10.8208 22.35 11.8962 22.35 11.8962H22.65Z" stroke="white"/>
</g>
<defs>
<clipPath id="clip0_120_2979">
<rect width="24" height="25.8113" fill="white" transform="translate(5 7.05661)"/>
</clipPath>
</defs>
</svg>
