<svg width="133" height="32" viewBox="0 0 133 32" fill="none" xmlns="http://www.w3.org/2000/svg">
<path d="M116.066 25.7333C115.822 25.4889 115.694 25.1778 115.682 24.8C115.671 24.4222 115.788 24.1111 116.033 23.8667L122.566 17.3333H107.666C107.289 17.3333 106.972 17.2053 106.716 16.9493C106.46 16.6933 106.332 16.3769 106.333 16C106.333 15.6222 106.461 15.3053 106.717 15.0493C106.973 14.7933 107.289 14.6658 107.666 14.6667H122.566L116.033 8.13333C115.789 7.88888 115.672 7.57777 115.682 7.19999C115.693 6.82222 115.821 6.5111 116.066 6.26666C116.311 6.02222 116.622 5.89999 117 5.89999C117.377 5.89999 117.689 6.02222 117.933 6.26666L126.733 15.0667C126.866 15.1778 126.961 15.3169 127.017 15.484C127.073 15.6511 127.101 15.8231 127.1 16C127.1 16.1778 127.072 16.3444 127.017 16.5C126.962 16.6555 126.867 16.8 126.733 16.9333L117.933 25.7333C117.689 25.9778 117.377 26.1 117 26.1C116.622 26.1 116.311 25.9778 116.066 25.7333Z" fill="#2081E4"/>
<path d="M15.561 9.986V23H13.428V14.594C13.428 14.258 13.446 13.895 13.482 13.505L9.549 20.894C9.363 21.248 9.078 21.425 8.694 21.425H8.352C7.968 21.425 7.683 21.248 7.497 20.894L3.519 13.478C3.537 13.676 3.552 13.871 3.564 14.063C3.576 14.255 3.582 14.432 3.582 14.594V23H1.449V9.986H3.276C3.384 9.986 3.477 9.989 3.555 9.995C3.633 10.001 3.702 10.016 3.762 10.04C3.828 10.064 3.885 10.103 3.933 10.157C3.987 10.211 4.038 10.283 4.086 10.373L7.983 17.6C8.085 17.792 8.178 17.99 8.262 18.194C8.352 18.398 8.439 18.608 8.523 18.824C8.607 18.602 8.694 18.389 8.784 18.185C8.874 17.975 8.97 17.774 9.072 17.582L12.915 10.373C12.963 10.283 13.014 10.211 13.068 10.157C13.122 10.103 13.179 10.064 13.239 10.04C13.305 10.016 13.377 10.001 13.455 9.995C13.533 9.989 13.626 9.986 13.734 9.986H15.561ZM21.9184 13.622C22.6024 13.622 23.2234 13.733 23.7814 13.955C24.3454 14.177 24.8254 14.492 25.2214 14.9C25.6234 15.308 25.9324 15.806 26.1484 16.394C26.3644 16.982 26.4724 17.639 26.4724 18.365C26.4724 19.097 26.3644 19.757 26.1484 20.345C25.9324 20.933 25.6234 21.434 25.2214 21.848C24.8254 22.262 24.3454 22.58 23.7814 22.802C23.2234 23.024 22.6024 23.135 21.9184 23.135C21.2284 23.135 20.6014 23.024 20.0374 22.802C19.4734 22.58 18.9904 22.262 18.5884 21.848C18.1924 21.434 17.8834 20.933 17.6614 20.345C17.4454 19.757 17.3374 19.097 17.3374 18.365C17.3374 17.639 17.4454 16.982 17.6614 16.394C17.8834 15.806 18.1924 15.308 18.5884 14.9C18.9904 14.492 19.4734 14.177 20.0374 13.955C20.6014 13.733 21.2284 13.622 21.9184 13.622ZM21.9184 21.425C22.6864 21.425 23.2534 21.167 23.6194 20.651C23.9914 20.135 24.1774 19.379 24.1774 18.383C24.1774 17.387 23.9914 16.628 23.6194 16.106C23.2534 15.584 22.6864 15.323 21.9184 15.323C21.1384 15.323 20.5594 15.587 20.1814 16.115C19.8094 16.637 19.6234 17.393 19.6234 18.383C19.6234 19.373 19.8094 20.129 20.1814 20.651C20.5594 21.167 21.1384 21.425 21.9184 21.425ZM30.2653 15.368C30.5533 14.816 30.8953 14.384 31.2913 14.072C31.6873 13.754 32.1553 13.595 32.6953 13.595C33.1213 13.595 33.4633 13.688 33.7213 13.874L33.5773 15.539C33.5473 15.647 33.5023 15.725 33.4423 15.773C33.3883 15.815 33.3133 15.836 33.2173 15.836C33.1273 15.836 32.9923 15.821 32.8123 15.791C32.6383 15.761 32.4673 15.746 32.2993 15.746C32.0533 15.746 31.8343 15.782 31.6423 15.854C31.4503 15.926 31.2763 16.031 31.1203 16.169C30.9703 16.301 30.8353 16.463 30.7153 16.655C30.6013 16.847 30.4933 17.066 30.3913 17.312V23H28.1683V13.766H29.4733C29.7013 13.766 29.8603 13.808 29.9503 13.892C30.0403 13.97 30.1003 14.114 30.1303 14.324L30.2653 15.368ZM40.5685 17.321C40.5685 17.033 40.5265 16.763 40.4425 16.511C40.3645 16.253 40.2445 16.028 40.0825 15.836C39.9205 15.644 39.7135 15.494 39.4615 15.386C39.2155 15.272 38.9275 15.215 38.5975 15.215C37.9555 15.215 37.4485 15.398 37.0765 15.764C36.7105 16.13 36.4765 16.649 36.3745 17.321H40.5685ZM36.3295 18.662C36.3655 19.136 36.4495 19.547 36.5815 19.895C36.7135 20.237 36.8875 20.522 37.1035 20.75C37.3195 20.972 37.5745 21.14 37.8685 21.254C38.1685 21.362 38.4985 21.416 38.8585 21.416C39.2185 21.416 39.5275 21.374 39.7855 21.29C40.0495 21.206 40.2775 21.113 40.4695 21.011C40.6675 20.909 40.8385 20.816 40.9825 20.732C41.1325 20.648 41.2765 20.606 41.4145 20.606C41.6005 20.606 41.7385 20.675 41.8285 20.813L42.4675 21.623C42.2215 21.911 41.9455 22.154 41.6395 22.352C41.3335 22.544 41.0125 22.7 40.6765 22.82C40.3465 22.934 40.0075 23.015 39.6595 23.063C39.3175 23.111 38.9845 23.135 38.6605 23.135C38.0185 23.135 37.4215 23.03 36.8695 22.82C36.3175 22.604 35.8375 22.289 35.4295 21.875C35.0215 21.455 34.7005 20.939 34.4665 20.327C34.2325 19.709 34.1155 18.995 34.1155 18.185C34.1155 17.555 34.2175 16.964 34.4215 16.412C34.6255 15.854 34.9165 15.371 35.2945 14.963C35.6785 14.549 36.1435 14.222 36.6895 13.982C37.2415 13.742 37.8625 13.622 38.5525 13.622C39.1345 13.622 39.6715 13.715 40.1635 13.901C40.6555 14.087 41.0785 14.36 41.4325 14.72C41.7865 15.074 42.0625 15.512 42.2605 16.034C42.4645 16.55 42.5665 17.141 42.5665 17.807C42.5665 18.143 42.5305 18.371 42.4585 18.491C42.3865 18.605 42.2485 18.662 42.0445 18.662H36.3295ZM54.4077 16.124C54.1557 15.818 53.8797 15.602 53.5797 15.476C53.2857 15.35 52.9677 15.287 52.6257 15.287C52.2897 15.287 51.9867 15.35 51.7167 15.476C51.4467 15.602 51.2157 15.794 51.0237 16.052C50.8317 16.304 50.6847 16.628 50.5827 17.024C50.4807 17.414 50.4297 17.876 50.4297 18.41C50.4297 18.95 50.4717 19.409 50.5557 19.787C50.6457 20.159 50.7717 20.465 50.9337 20.705C51.0957 20.939 51.2937 21.11 51.5277 21.218C51.7617 21.32 52.0227 21.371 52.3107 21.371C52.7727 21.371 53.1657 21.275 53.4897 21.083C53.8137 20.891 54.1197 20.618 54.4077 20.264V16.124ZM56.6307 9.626V23H55.2717C54.9777 23 54.7917 22.865 54.7137 22.595L54.5247 21.704C54.1527 22.13 53.7237 22.475 53.2377 22.739C52.7577 23.003 52.1967 23.135 51.5547 23.135C51.0507 23.135 50.5887 23.03 50.1687 22.82C49.7487 22.61 49.3857 22.307 49.0797 21.911C48.7797 21.509 48.5457 21.014 48.3777 20.426C48.2157 19.838 48.1347 19.166 48.1347 18.41C48.1347 17.726 48.2277 17.09 48.4137 16.502C48.5997 15.914 48.8667 15.404 49.2147 14.972C49.5627 14.54 49.9797 14.204 50.4657 13.964C50.9517 13.718 51.4977 13.595 52.1037 13.595C52.6197 13.595 53.0607 13.676 53.4267 13.838C53.7927 14 54.1197 14.219 54.4077 14.495V9.626H56.6307ZM64.7736 17.321C64.7736 17.033 64.7316 16.763 64.6476 16.511C64.5696 16.253 64.4496 16.028 64.2876 15.836C64.1256 15.644 63.9186 15.494 63.6666 15.386C63.4206 15.272 63.1326 15.215 62.8026 15.215C62.1606 15.215 61.6536 15.398 61.2816 15.764C60.9156 16.13 60.6816 16.649 60.5796 17.321H64.7736ZM60.5346 18.662C60.5706 19.136 60.6546 19.547 60.7866 19.895C60.9186 20.237 61.0926 20.522 61.3086 20.75C61.5246 20.972 61.7796 21.14 62.0736 21.254C62.3736 21.362 62.7036 21.416 63.0636 21.416C63.4236 21.416 63.7326 21.374 63.9906 21.29C64.2546 21.206 64.4826 21.113 64.6746 21.011C64.8726 20.909 65.0436 20.816 65.1876 20.732C65.3376 20.648 65.4816 20.606 65.6196 20.606C65.8056 20.606 65.9436 20.675 66.0336 20.813L66.6726 21.623C66.4266 21.911 66.1506 22.154 65.8446 22.352C65.5386 22.544 65.2176 22.7 64.8816 22.82C64.5516 22.934 64.2126 23.015 63.8646 23.063C63.5226 23.111 63.1896 23.135 62.8656 23.135C62.2236 23.135 61.6266 23.03 61.0746 22.82C60.5226 22.604 60.0426 22.289 59.6346 21.875C59.2266 21.455 58.9056 20.939 58.6716 20.327C58.4376 19.709 58.3206 18.995 58.3206 18.185C58.3206 17.555 58.4226 16.964 58.6266 16.412C58.8306 15.854 59.1216 15.371 59.4996 14.963C59.8836 14.549 60.3486 14.222 60.8946 13.982C61.4466 13.742 62.0676 13.622 62.7576 13.622C63.3396 13.622 63.8766 13.715 64.3686 13.901C64.8606 14.087 65.2836 14.36 65.6376 14.72C65.9916 15.074 66.2676 15.512 66.4656 16.034C66.6696 16.55 66.7716 17.141 66.7716 17.807C66.7716 18.143 66.7356 18.371 66.6636 18.491C66.5916 18.605 66.4536 18.662 66.2496 18.662H60.5346ZM71.4299 23.144C70.6259 23.144 70.0079 22.919 69.5759 22.469C69.1499 22.013 68.9369 21.386 68.9369 20.588V15.431H67.9919C67.8719 15.431 67.7699 15.392 67.6859 15.314C67.6019 15.236 67.5599 15.119 67.5599 14.963V14.081L69.0449 13.838L69.5129 11.318C69.5429 11.198 69.5999 11.105 69.6839 11.039C69.7679 10.973 69.8759 10.94 70.0079 10.94H71.1599V13.847H73.6259V15.431H71.1599V20.435C71.1599 20.723 71.2289 20.948 71.3669 21.11C71.5109 21.272 71.7059 21.353 71.9519 21.353C72.0899 21.353 72.2039 21.338 72.2939 21.308C72.3899 21.272 72.4709 21.236 72.5369 21.2C72.6089 21.164 72.6719 21.131 72.7259 21.101C72.7799 21.065 72.8339 21.047 72.8879 21.047C72.9539 21.047 73.0079 21.065 73.0499 21.101C73.0919 21.131 73.1369 21.179 73.1849 21.245L73.8509 22.325C73.5269 22.595 73.1549 22.799 72.7349 22.937C72.3149 23.075 71.8799 23.144 71.4299 23.144ZM79.9272 19.058C79.2852 19.088 78.7452 19.145 78.3072 19.229C77.8692 19.307 77.5182 19.409 77.2542 19.535C76.9902 19.661 76.8012 19.808 76.6872 19.976C76.5732 20.144 76.5162 20.327 76.5162 20.525C76.5162 20.915 76.6302 21.194 76.8582 21.362C77.0922 21.53 77.3952 21.614 77.7672 21.614C78.2232 21.614 78.6162 21.533 78.9462 21.371C79.2822 21.203 79.6092 20.951 79.9272 20.615V19.058ZM74.8332 15.053C75.8952 14.081 77.1732 13.595 78.6672 13.595C79.2072 13.595 79.6902 13.685 80.1162 13.865C80.5422 14.039 80.9022 14.285 81.1962 14.603C81.4902 14.915 81.7122 15.29 81.8622 15.728C82.0182 16.166 82.0962 16.646 82.0962 17.168V23H81.0882C80.8782 23 80.7162 22.97 80.6022 22.91C80.4882 22.844 80.3982 22.715 80.3322 22.523L80.1342 21.857C79.9002 22.067 79.6722 22.253 79.4502 22.415C79.2282 22.571 78.9972 22.703 78.7572 22.811C78.5172 22.919 78.2592 23 77.9832 23.054C77.7132 23.114 77.4132 23.144 77.0832 23.144C76.6932 23.144 76.3332 23.093 76.0032 22.991C75.6732 22.883 75.3882 22.724 75.1482 22.514C74.9082 22.304 74.7222 22.043 74.5902 21.731C74.4582 21.419 74.3922 21.056 74.3922 20.642C74.3922 20.408 74.4312 20.177 74.5092 19.949C74.5872 19.715 74.7132 19.493 74.8872 19.283C75.0672 19.073 75.2982 18.875 75.5802 18.689C75.8622 18.503 76.2072 18.341 76.6152 18.203C77.0292 18.065 77.5092 17.954 78.0552 17.87C78.6012 17.78 79.2252 17.726 79.9272 17.708V17.168C79.9272 16.55 79.7952 16.094 79.5312 15.8C79.2672 15.5 78.8862 15.35 78.3882 15.35C78.0282 15.35 77.7282 15.392 77.4882 15.476C77.2542 15.56 77.0472 15.656 76.8672 15.764C76.6872 15.866 76.5222 15.959 76.3722 16.043C76.2282 16.127 76.0662 16.169 75.8862 16.169C75.7302 16.169 75.5982 16.13 75.4902 16.052C75.3822 15.968 75.2952 15.872 75.2292 15.764L74.8332 15.053ZM86.4938 13.766V23H84.2618V13.766H86.4938ZM86.7998 11.075C86.7998 11.267 86.7608 11.447 86.6828 11.615C86.6048 11.783 86.4998 11.93 86.3678 12.056C86.2418 12.182 86.0918 12.284 85.9178 12.362C85.7438 12.434 85.5578 12.47 85.3598 12.47C85.1678 12.47 84.9848 12.434 84.8108 12.362C84.6428 12.284 84.4958 12.182 84.3698 12.056C84.2438 11.93 84.1418 11.783 84.0638 11.615C83.9918 11.447 83.9558 11.267 83.9558 11.075C83.9558 10.877 83.9918 10.691 84.0638 10.517C84.1418 10.343 84.2438 10.193 84.3698 10.067C84.4958 9.941 84.6428 9.842 84.8108 9.77C84.9848 9.692 85.1678 9.653 85.3598 9.653C85.5578 9.653 85.7438 9.692 85.9178 9.77C86.0918 9.842 86.2418 9.941 86.3678 10.067C86.4998 10.193 86.6048 10.343 86.6828 10.517C86.7608 10.691 86.7998 10.877 86.7998 11.075ZM91.0101 9.626V23H88.7871V9.626H91.0101ZM98.859 15.566C98.799 15.662 98.736 15.731 98.67 15.773C98.604 15.809 98.52 15.827 98.418 15.827C98.31 15.827 98.193 15.797 98.067 15.737C97.947 15.677 97.806 15.611 97.644 15.539C97.482 15.461 97.296 15.392 97.086 15.332C96.882 15.272 96.639 15.242 96.357 15.242C95.919 15.242 95.574 15.335 95.322 15.521C95.076 15.707 94.953 15.95 94.953 16.25C94.953 16.448 95.016 16.616 95.142 16.754C95.274 16.886 95.445 17.003 95.655 17.105C95.871 17.207 96.114 17.3 96.384 17.384C96.654 17.462 96.927 17.549 97.203 17.645C97.485 17.741 97.761 17.852 98.031 17.978C98.301 18.098 98.541 18.254 98.751 18.446C98.967 18.632 99.138 18.857 99.264 19.121C99.396 19.385 99.462 19.703 99.462 20.075C99.462 20.519 99.381 20.93 99.219 21.308C99.063 21.68 98.829 22.004 98.517 22.28C98.205 22.55 97.818 22.763 97.356 22.919C96.9 23.069 96.372 23.144 95.772 23.144C95.454 23.144 95.142 23.114 94.836 23.054C94.536 23 94.245 22.922 93.963 22.82C93.687 22.718 93.429 22.598 93.189 22.46C92.955 22.322 92.748 22.172 92.568 22.01L93.081 21.164C93.147 21.062 93.225 20.984 93.315 20.93C93.405 20.876 93.519 20.849 93.657 20.849C93.795 20.849 93.924 20.888 94.044 20.966C94.17 21.044 94.314 21.128 94.476 21.218C94.638 21.308 94.827 21.392 95.043 21.47C95.265 21.548 95.544 21.587 95.88 21.587C96.144 21.587 96.369 21.557 96.555 21.497C96.747 21.431 96.903 21.347 97.023 21.245C97.149 21.143 97.239 21.026 97.293 20.894C97.353 20.756 97.383 20.615 97.383 20.471C97.383 20.255 97.317 20.078 97.185 19.94C97.059 19.802 96.888 19.682 96.672 19.58C96.462 19.478 96.219 19.388 95.943 19.31C95.673 19.226 95.394 19.136 95.106 19.04C94.824 18.944 94.545 18.833 94.269 18.707C93.999 18.575 93.756 18.41 93.54 18.212C93.33 18.014 93.159 17.771 93.027 17.483C92.901 17.195 92.838 16.847 92.838 16.439C92.838 16.061 92.913 15.701 93.063 15.359C93.213 15.017 93.432 14.72 93.72 14.468C94.014 14.21 94.377 14.006 94.809 13.856C95.247 13.7 95.751 13.622 96.321 13.622C96.957 13.622 97.536 13.727 98.058 13.937C98.58 14.147 99.015 14.423 99.363 14.765L98.859 15.566Z" fill="#2081E4"/>
</svg>
