<svg width="36" height="36" viewBox="0 0 36 36" fill="none" xmlns="http://www.w3.org/2000/svg">
<circle cx="18" cy="18" r="18" fill="#D9D9D9"/>
<path d="M17.9994 10C19.1035 10 20.1625 10.4214 20.9433 11.1716C21.724 11.9217 22.1626 12.9391 22.1626 14C22.1626 15.0609 21.724 16.0783 20.9433 16.8284C20.1625 17.5786 19.1035 18 17.9994 18C16.8952 18 15.8363 17.5786 15.0555 16.8284C14.2747 16.0783 13.8361 15.0609 13.8361 14C13.8361 12.9391 14.2747 11.9217 15.0555 11.1716C15.8363 10.4214 16.8952 10 17.9994 10ZM17.9994 20C22.5998 20 26.3259 21.79 26.3259 24V26H9.67285V24C9.67285 21.79 13.399 20 17.9994 20Z" fill="white"/>
</svg>
