<svg width="139" height="99" viewBox="0 0 139 99" fill="none" xmlns="http://www.w3.org/2000/svg">
<rect x="0.5" y="0.5" width="138" height="98" rx="2.5" fill="#FBFBFC" stroke="#C593FC" stroke-dasharray="2 2"/>
<path d="M67.75 55.9583H70.25V50.7917H75.25V48.2083H70.25V43.0417H67.75V48.2083H62.75V50.7917H67.75V55.9583ZM69 62.4167C67.2708 62.4167 65.6458 62.0774 64.125 61.3988C62.6042 60.7203 61.2813 59.8002 60.1563 58.6386C59.0313 57.4761 58.1408 56.109 57.485 54.5375C56.8292 52.966 56.5008 51.2868 56.5 49.5C56.5 47.7132 56.8283 46.034 57.485 44.4625C58.1417 42.891 59.0321 41.524 60.1563 40.3615C61.2813 39.199 62.6042 38.2789 64.125 37.6012C65.6458 36.9235 67.2708 36.5842 69 36.5833C70.7292 36.5833 72.3542 36.9226 73.875 37.6012C75.3958 38.2797 76.7188 39.1998 77.8438 40.3615C78.9688 41.524 79.8596 42.891 80.5163 44.4625C81.1729 46.034 81.5008 47.7132 81.5 49.5C81.5 51.2868 81.1717 52.966 80.515 54.5375C79.8583 56.109 78.9679 57.4761 77.8438 58.6386C76.7188 59.8011 75.3958 60.7216 73.875 61.4001C72.3542 62.0787 70.7292 62.4175 69 62.4167Z" fill="#DCDBE0"/>
</svg>
