<svg width="37" height="40" viewBox="0 0 37 40" fill="none" xmlns="http://www.w3.org/2000/svg">
<path d="M17.3787 24.8483L26.207 34.3429C26.9641 35.1312 27.979 35.5678 29.0328 35.5586C30.0865 35.5494 31.0947 35.0951 31.8398 34.2937C32.585 33.4923 33.0074 32.4081 33.0159 31.2748C33.0245 30.1415 32.6185 29.05 31.8856 28.2358L22.9861 18.6646M17.3787 24.8483L21.1584 19.9138C21.6384 19.2884 22.2789 18.8943 22.9876 18.6663C23.8205 18.3992 24.7487 18.3601 25.627 18.4383C26.8109 18.5476 28.0009 18.3221 29.0787 17.7841C30.1565 17.2461 31.0848 16.4144 31.7715 15.3714C32.4581 14.3284 32.8792 13.1104 32.993 11.8383C33.1068 10.5662 32.9093 9.28429 32.4201 8.11965L27.4593 13.4565C26.6293 13.2501 25.8699 12.7972 25.2676 12.1493C24.6652 11.5015 24.2441 10.6848 24.0522 9.79219L29.013 4.45699C27.9301 3.9309 26.7381 3.7185 25.5553 3.84087C24.3724 3.96325 23.24 4.41613 22.2702 5.15459C21.3004 5.89304 20.527 6.8914 20.0267 8.05059C19.5265 9.20978 19.3168 10.4895 19.4185 11.7628C19.5563 13.5151 19.3109 15.4498 18.0495 16.567L17.8951 16.7055M17.3787 24.8483L10.3297 34.0546C9.98808 34.5025 9.56303 34.8685 9.08194 35.129C8.60084 35.3896 8.07435 35.5389 7.53636 35.5673C6.99836 35.5958 6.46079 35.5028 5.95823 35.2944C5.45567 35.0859 4.99926 34.7666 4.61838 34.357C4.2375 33.9473 3.94059 33.4565 3.74676 32.916C3.55293 32.3755 3.46647 31.7974 3.49295 31.2188C3.51943 30.6402 3.65826 30.0739 3.9005 29.5565C4.14275 29.0391 4.48304 28.582 4.89948 28.2146L15.2527 19.0457L9.03348 12.3572H6.89986L3.49271 6.25005L5.76414 3.80719L11.4427 7.47148V9.76613L17.8936 16.7038L15.2511 19.0441M27.9106 30.0679L23.9356 25.7929M7.4556 31.2893H7.46771V31.3024H7.4556V31.2893Z" stroke="white" stroke-width="2.27143" stroke-linecap="round" stroke-linejoin="round"/>
</svg>
