<svg width="53" height="57" viewBox="0 0 53 57" fill="none" xmlns="http://www.w3.org/2000/svg">
<ellipse cx="26.5" cy="28.5" rx="26.5" ry="28.5" fill="#4E139F"/>
<path d="M26.3787 32.8483L35.207 42.3429C35.9641 43.1312 36.979 43.5678 38.0328 43.5586C39.0865 43.5494 40.0947 43.0951 40.8398 42.2937C41.585 41.4923 42.0074 40.4081 42.0159 39.2748C42.0245 38.1415 41.6185 37.05 40.8856 36.2358L31.9861 26.6646M26.3787 32.8483L30.1584 27.9138C30.6384 27.2884 31.2789 26.8943 31.9876 26.6663C32.8205 26.3992 33.7487 26.3601 34.627 26.4383C35.8109 26.5476 37.0009 26.3221 38.0787 25.7841C39.1565 25.2461 40.0848 24.4144 40.7715 23.3714C41.4581 22.3284 41.8792 21.1104 41.993 19.8383C42.1068 18.5662 41.9093 17.2843 41.4201 16.1196L36.4593 21.4565C35.6293 21.2501 34.8699 20.7972 34.2676 20.1493C33.6652 19.5015 33.2441 18.6848 33.0522 17.7922L38.013 12.457C36.9301 11.9309 35.7381 11.7185 34.5553 11.8409C33.3724 11.9632 32.24 12.4161 31.2702 13.1546C30.3004 13.893 29.527 14.8914 29.0267 16.0506C28.5265 17.2098 28.3168 18.4895 28.4185 19.7628C28.5563 21.5151 28.3109 23.4498 27.0495 24.567L26.8951 24.7055M26.3787 32.8483L19.3297 42.0546C18.9881 42.5025 18.563 42.8685 18.0819 43.129C17.6008 43.3896 17.0744 43.5389 16.5364 43.5673C15.9984 43.5958 15.4608 43.5028 14.9582 43.2944C14.4557 43.0859 13.9993 42.7666 13.6184 42.357C13.2375 41.9473 12.9406 41.4565 12.7468 40.916C12.5529 40.3755 12.4665 39.7974 12.4929 39.2188C12.5194 38.6402 12.6583 38.0739 12.9005 37.5565C13.1427 37.0391 13.483 36.582 13.8995 36.2146L24.2527 27.0457L18.0335 20.3572H15.8999L12.4927 14.25L14.7641 11.8072L20.4427 15.4715V17.7661L26.8936 24.7038L24.2511 27.0441M36.9106 38.0679L32.9356 33.7929M16.4556 39.2893H16.4677V39.3024H16.4556V39.2893Z" stroke="white" stroke-width="2.27143" stroke-linecap="round" stroke-linejoin="round"/>
</svg>
